<?xml version="1.0" standalone="no"?>
<!DOCTYPE svg PUBLIC "-//W3C//DTD SVG 20010904//EN"
 "http://www.w3.org/TR/2001/REC-SVG-20010904/DTD/svg10.dtd">
<svg version="1.0" xmlns="http://www.w3.org/2000/svg"
 width="512.000000pt" height="512.000000pt" viewBox="0 0 512.000000 512.000000"
 preserveAspectRatio="xMidYMid meet">
<metadata>
Created by potrace 1.14, written by Peter Selinger 2001-2017
</metadata>
<g transform="translate(0.000000,512.000000) scale(0.100000,-0.100000)"
fill="#000000" stroke="none">
<path d="M3319 4895 c-181 -29 -355 -123 -456 -244 -70 -84 -136 -220 -169
-347 -21 -80 -27 -124 -28 -229 0 -71 3 -151 8 -176 l8 -46 -88 -11 c-49 -6
-120 -22 -159 -35 -38 -14 -115 -41 -171 -61 -55 -20 -120 -39 -145 -42 -43
-6 -46 -4 -199 106 -85 62 -186 133 -225 158 -75 51 -145 117 -145 137 0 20
-50 75 -77 86 -31 12 -67 -3 -125 -52 -26 -21 -50 -39 -54 -39 -4 0 -38 18
-75 40 -70 43 -156 64 -195 50 -27 -11 -47 -65 -34 -90 5 -10 32 -37 60 -60
27 -23 50 -46 50 -52 0 -7 -20 -8 -56 -3 -94 11 -144 -26 -144 -109 0 -27 6
-40 25 -52 26 -17 26 -17 7 -38 -31 -34 -42 -62 -42 -109 0 -41 3 -46 30 -56
29 -10 30 -11 30 -78 0 -99 27 -116 105 -68 54 33 83 31 164 -9 113 -57 422
-278 561 -401 110 -97 118 -98 473 -62 l219 22 -6 -30 c-10 -49 -55 -129 -103
-184 -74 -84 -175 -146 -360 -220 -151 -60 -187 -65 -478 -66 -211 0 -271 -4
-320 -17 -33 -9 -97 -22 -142 -27 -132 -17 -209 -65 -303 -192 -107 -145 -192
-335 -241 -544 -31 -133 -32 -134 -147 -163 -145 -37 -132 -140 23 -172 74
-15 418 -60 457 -60 22 0 52 12 84 32 69 47 183 165 220 229 17 30 53 91 79
137 26 45 56 87 68 93 23 13 624 2 632 -11 3 -5 -34 -37 -82 -72 -224 -164
-253 -218 -253 -479 0 -345 55 -640 142 -760 l30 -41 -71 -73 c-80 -82 -89
-113 -47 -158 49 -53 79 -49 278 45 91 43 147 62 199 70 124 19 167 81 195
281 13 87 15 145 9 262 -5 83 -9 181 -9 218 l-1 69 130 33 c146 37 658 211
750 255 101 48 256 161 295 214 76 105 98 131 108 129 5 -1 52 -8 102 -15 56
-7 101 -19 113 -29 20 -15 20 -20 9 -68 -21 -92 -16 -129 22 -167 32 -32 38
-34 99 -34 48 0 68 -4 78 -16 12 -15 27 -16 114 -8 55 4 147 9 205 9 121 2
165 16 223 73 30 29 44 56 68 132 72 223 181 623 195 715 27 170 6 348 -67
568 -37 113 -56 150 -149 280 l-35 48 24 62 c95 253 144 437 144 542 1 94 -26
147 -113 228 l-67 62 9 65 c13 94 -5 127 -96 186 -86 55 -212 116 -283 137
-70 21 -86 31 -152 91 -108 100 -220 162 -354 197 -97 26 -269 32 -378 14z"/>
</g>
</svg>
